<?xml version="1.0" encoding="UTF-8"?>
<svg width="48px" height="48px" viewBox="0 0 48 48" version="1.1" xmlns="http://www.w3.org/2000/svg">
    <title>Dog Question</title>
    <g stroke="none" stroke-width="1" fill="none" fill-rule="evenodd">
        <path d="M24,4 C32.8365564,4 40,11.163444 40,20 C40,28.836556 32.8365564,36 24,36 C15.163444,36 8,28.836556 8,20 C8,11.163444 15.163444,4 24,4 Z" fill="#FFDA63" opacity="0.2"></path>
        <path d="M24,28 L24,28.01" stroke="#FFDA63" stroke-width="3" stroke-linecap="round" stroke-linejoin="round"></path>
        <path d="M24,24 C24,22 26,21 26,20 C26,18.3431458 25.1045695,17 24,17 C22.8954305,17 22,18.3431458 22,20" stroke="#FFDA63" stroke-width="2" stroke-linecap="round" stroke-linejoin="round"></path>
        <path d="M34,16 C34,16 36,20 36,24 C36,28 34,32 34,32" stroke="#FFDA63" stroke-width="2" stroke-linecap="round" stroke-linejoin="round"></path>
        <path d="M14,16 C14,16 12,20 12,24 C12,28 14,32 14,32" stroke="#FFDA63" stroke-width="2" stroke-linecap="round" stroke-linejoin="round"></path>
        <path d="M18,12 L30,12 C30,12 32,16 32,20 L16,20 C16,16 18,12 18,12 Z" stroke="#FFDA63" stroke-width="2" stroke-linecap="round" stroke-linejoin="round"></path>
        <path d="M16,20 C16,20 14,32 18,36 C20,38 28,38 30,36 C34,32 32,20 32,20" stroke="#FFDA63" stroke-width="2" stroke-linecap="round" stroke-linejoin="round"></path>
        <circle fill="#FFDA63" cx="21" cy="16" r="1"></circle>
        <circle fill="#FFDA63" cx="27" cy="16" r="1"></circle>
    </g>
</svg>
