<?xml version="1.0" encoding="UTF-8"?>
<svg width="48px" height="48px" viewBox="0 0 48 48" version="1.1" xmlns="http://www.w3.org/2000/svg">
    <title>Fragmented Documents</title>
    <g stroke="none" stroke-width="1" fill="none" fill-rule="evenodd">
        <rect fill="#FFDA63" x="8" y="8" width="20" height="26" rx="2"></rect>
        <rect fill="#FFFFFF" x="12" y="14" width="12" height="2" rx="1"></rect>
        <rect fill="#FFFFFF" x="12" y="18" width="12" height="2" rx="1"></rect>
        <rect fill="#FFFFFF" x="12" y="22" width="8" height="2" rx="1"></rect>
        <rect fill="#FFDA63" x="20" y="14" width="20" height="26" rx="2"></rect>
        <rect fill="#FFFFFF" x="24" y="20" width="12" height="2" rx="1"></rect>
        <rect fill="#FFFFFF" x="24" y="24" width="12" height="2" rx="1"></rect>
        <rect fill="#FFFFFF" x="24" y="28" width="8" height="2" rx="1"></rect>
        <path d="M14,8 L14,4 C14,2.8954305 14.8954305,2 16,2 L36,2 C37.1045695,2 38,2.8954305 38,4 L38,12" stroke="#FFDA63" stroke-width="2" stroke-linecap="round" stroke-linejoin="round" stroke-dasharray="4,2"></path>
        <path d="M34,14 L34,10 C34,8.8954305 34.8954305,8 36,8 L40,8 C41.1045695,8 42,8.8954305 42,10 L42,18" stroke="#FFDA63" stroke-width="2" stroke-linecap="round" stroke-linejoin="round" stroke-dasharray="4,2"></path>
    </g>
</svg>
