<?xml version="1.0" encoding="UTF-8"?>
<svg width="40px" height="40px" viewBox="0 0 40 40" version="1.1" xmlns="http://www.w3.org/2000/svg">
    <title>Paw Tech Icon</title>
    <g stroke="none" stroke-width="1" fill="none" fill-rule="evenodd">
        <path d="M20,0 C31.0457,0 40,8.9543 40,20 C40,31.0457 31.0457,40 20,40 C8.9543,40 0,31.0457 0,20 C0,8.9543 8.9543,0 20,0 Z" fill="#29ABE2" opacity="0.1"></path>
        <path d="M12.5,10 C14.433,10 16,11.567 16,13.5 C16,15.433 14.433,17 12.5,17 C10.567,17 9,15.433 9,13.5 C9,11.567 10.567,10 12.5,10 Z" fill="#29ABE2"></path>
        <path d="M27.5,10 C29.433,10 31,11.567 31,13.5 C31,15.433 29.433,17 27.5,17 C25.567,17 24,15.433 24,13.5 C24,11.567 25.567,10 27.5,10 Z" fill="#29ABE2"></path>
        <path d="M8.5,19 C10.433,19 12,20.567 12,22.5 C12,24.433 10.433,26 8.5,26 C6.567,26 5,24.433 5,22.5 C5,20.567 6.567,19 8.5,19 Z" fill="#29ABE2"></path>
        <path d="M31.5,19 C33.433,19 35,20.567 35,22.5 C35,24.433 33.433,26 31.5,26 C29.567,26 28,24.433 28,22.5 C28,20.567 29.567,19 31.5,19 Z" fill="#29ABE2"></path>
        <path d="M20,18 C23.866,18 27,21.134 27,25 C27,28.866 23.866,32 20,32 C16.134,32 13,28.866 13,25 C13,21.134 16.134,18 20,18 Z" fill="#29ABE2"></path>
        <path d="M20,22 L20,28 M17,25 L23,25" stroke="#FFFFFF" stroke-width="2" stroke-linecap="round"></path>
        <path d="M28,8 L32,4 M32,8 L28,4" stroke="#29ABE2" stroke-width="2" stroke-linecap="round"></path>
        <path d="M8,8 L12,4 M12,8 L8,4" stroke="#29ABE2" stroke-width="2" stroke-linecap="round"></path>
    </g>
</svg>
