<?xml version="1.0" encoding="UTF-8"?>
<svg width="48px" height="48px" viewBox="0 0 48 48" version="1.1" xmlns="http://www.w3.org/2000/svg">
    <title>DNA Chart</title>
    <g stroke="none" stroke-width="1" fill="none" fill-rule="evenodd">
        <path d="M24,4 C32.8365564,4 40,11.163444 40,20 C40,28.836556 32.8365564,36 24,36 C15.163444,36 8,28.836556 8,20 C8,11.163444 15.163444,4 24,4 Z" fill="#FFDA63" opacity="0.2"></path>
        <path d="M24,8 L24,32" stroke="#FFDA63" stroke-width="2" stroke-linecap="round" stroke-linejoin="round"></path>
        <path d="M16,12 L32,12" stroke="#FFDA63" stroke-width="2" stroke-linecap="round" stroke-linejoin="round"></path>
        <path d="M14,16 L34,16" stroke="#FFDA63" stroke-width="2" stroke-linecap="round" stroke-linejoin="round"></path>
        <path d="M12,20 L36,20" stroke="#FFDA63" stroke-width="2" stroke-linecap="round" stroke-linejoin="round"></path>
        <path d="M14,24 L34,24" stroke="#FFDA63" stroke-width="2" stroke-linecap="round" stroke-linejoin="round"></path>
        <path d="M16,28 L32,28" stroke="#FFDA63" stroke-width="2" stroke-linecap="round" stroke-linejoin="round"></path>
        <circle fill="#FFDA63" cx="24" cy="12" r="3"></circle>
        <circle fill="#FFDA63" cx="24" cy="20" r="3"></circle>
        <circle fill="#FFDA63" cx="24" cy="28" r="3"></circle>
        <path d="M12,36 L36,44" stroke="#FFDA63" stroke-width="2" stroke-linecap="round" stroke-linejoin="round"></path>
        <path d="M36,36 L12,44" stroke="#FFDA63" stroke-width="2" stroke-linecap="round" stroke-linejoin="round"></path>
    </g>
</svg>
